<svg width="45" height="59" viewBox="0 0 45 59" fill="none" xmlns="http://www.w3.org/2000/svg">
<path d="M22.5 17.4004C15.8203 17.4004 10.3846 22.829 10.3846 29.5C10.3846 36.171 15.8203 41.5996 22.5 41.5996C29.1797 41.5996 34.6154 36.171 34.6154 29.5C34.6154 22.829 29.1797 17.4004 22.5 17.4004ZM30.6468 27.2651L21.9929 35.9077C21.6549 36.2453 21.2118 36.4141 20.7692 36.4141C20.3266 36.4141 19.8836 36.2453 19.5455 35.9077L14.3532 30.7221C13.6771 30.0469 13.6771 28.9531 14.3532 28.2779C15.0293 27.6027 16.1245 27.6027 16.8006 28.2779L20.7692 32.2413L28.1994 24.8209C28.8755 24.1457 29.9707 24.1457 30.6468 24.8209C31.3229 25.4961 31.3229 26.5899 30.6468 27.2651Z" fill="white"/>
<path d="M43.2692 7.0293H39.2145C33.3628 7.0293 27.8613 4.63863 23.7237 0.506401C23.0476 -0.1688 21.9524 -0.1688 21.2763 0.506401C17.1387 4.63863 11.6372 7.0293 5.78546 7.0293H1.73077C0.773888 7.0293 0 7.80218 0 8.75781V29.5C0 45.0328 11.3176 52.2579 18.8068 56.9622C19.4914 57.3912 21.7712 59 22.5 59C23.227 59 25.4464 57.4326 26.1288 57.0046C33.6436 52.2971 45 45.0647 45 29.5V8.75781C45 7.80218 44.2257 7.0293 43.2692 7.0293ZM22.5 45.0566C13.9102 45.0566 6.92308 38.0782 6.92308 29.5C6.92308 20.9213 13.9102 13.9434 22.5 13.9434C31.0894 13.9434 38.0769 20.9213 38.0769 29.5C38.0769 38.0782 31.0894 45.0566 22.5 45.0566Z" fill="white"/>
</svg>
