<svg width="12" height="13" viewBox="0 0 12 13" fill="none" xmlns="http://www.w3.org/2000/svg">
<path d="M10.3725 7.14566V2.88965C10.373 2.72937 10.3415 2.57059 10.28 2.42252C10.2185 2.27444 10.1282 2.14 10.0143 2.02698L10.0048 2.01752C9.82626 1.83967 9.59702 1.72115 9.34841 1.67815C9.09981 1.63514 8.84395 1.66975 8.6158 1.77724C8.83127 2.1346 8.92083 2.55355 8.87024 2.9675C8.81966 3.38146 8.63184 3.76667 8.33662 4.06194L8.07705 4.32087L8.55483 4.7975L8.01852 5.33248L4.41556 1.73849L4.95189 1.20348L5.4297 1.68009L5.68927 1.42116C6.00005 1.11201 6.40973 0.921442 6.8469 0.882659C7.28407 0.843876 7.72103 0.959337 8.08162 1.20892C8.46186 0.969383 8.91247 0.865972 9.35943 0.915677C9.80638 0.965383 10.2231 1.16525 10.5411 1.48244L10.5506 1.4919C10.7352 1.67503 10.8815 1.89285 10.9812 2.13278C11.0808 2.3727 11.1317 2.62995 11.131 2.88965V7.14566H11.8895V7.90228H11.131V8.62817C11.131 8.68916 11.1212 8.74975 11.1018 8.80761L10.3962 10.9191C10.3586 11.0321 10.2862 11.1304 10.1893 11.2001C10.0924 11.2698 9.97601 11.3072 9.85659 11.3071H9.55082L9.82734 12.2529H9.03724L8.7607 11.3071H3.82805L3.54361 12.2529H2.75192L3.03636 11.3071H2.54499C2.42556 11.3072 2.30912 11.2698 2.21223 11.2001C2.11534 11.1305 2.04292 11.0321 2.00526 10.9191L1.29971 8.80761C1.28035 8.74975 1.27048 8.68916 1.27046 8.62817V7.90228H0.511959V7.14566H10.3725ZM7.80024 1.95616C7.59127 1.74816 7.30813 1.63135 7.01292 1.63135C6.71772 1.63135 6.43457 1.74816 6.22561 1.95616L5.96608 2.21509L7.54066 3.78577L7.80024 3.52689C8.00874 3.31843 8.12583 3.03599 8.12583 2.74152C8.12583 2.44706 8.00874 2.16461 7.80024 1.95616ZM2.02897 8.59743L2.68157 10.5505H9.71992L10.3725 8.59743V7.90228H2.02897V8.59743Z" fill="#F1822B"/>
</svg>
