<svg width="26" height="26" viewBox="0 0 26 26" fill="none" xmlns="http://www.w3.org/2000/svg">
<path d="M25.5667 25.1333H22.9667V10.8333C22.9667 10.594 22.7726 10.4 22.5333 10.4H16.4667V0.433333C16.4667 0.194025 16.2726 0 16.0333 0H4.76667C4.52736 0 4.33333 0.194025 4.33333 0.433333V25.1333H0.433333C0.194025 25.1333 0 25.3274 0 25.5667C0 25.806 0.194025 26 0.433333 26H25.5667C25.806 26 26 25.806 26 25.5667C26 25.3274 25.806 25.1333 25.5667 25.1333ZM9.1 25.1333H7.36667V21.2333C7.36667 20.994 7.56069 20.8 7.8 20.8H8.66667C8.90598 20.8 9.1 20.994 9.1 21.2333V25.1333ZM10.8333 10.8333V25.1333H9.96667V21.2333C9.96667 20.5154 9.38465 19.9333 8.66667 19.9333H7.8C7.08202 19.9333 6.5 20.5154 6.5 21.2333V25.1333H5.2V0.866667H15.6V10.4H11.2667C11.0274 10.4 10.8333 10.594 10.8333 10.8333ZM22.1 25.1333H11.7V11.2667H22.1V25.1333Z" fill="#4AC4AB"/>
<path d="M13.8667 6.06667H11.2667C11.0274 6.06667 10.8333 6.26069 10.8333 6.5V9.1C10.8333 9.33931 11.0274 9.53333 11.2667 9.53333H13.8667C14.106 9.53333 14.3 9.33931 14.3 9.1V6.5C14.3 6.26069 14.106 6.06667 13.8667 6.06667ZM13.4333 8.66667H11.7V6.93333H13.4333V8.66667Z" fill="#4AC4AB"/>
<path d="M13.8667 1.73333H11.2667C11.0274 1.73333 10.8333 1.92736 10.8333 2.16667V4.76667C10.8333 5.00598 11.0274 5.2 11.2667 5.2H13.8667C14.106 5.2 14.3 5.00598 14.3 4.76667V2.16667C14.3 1.92736 14.106 1.73333 13.8667 1.73333ZM13.4333 4.33333H11.7V2.6H13.4333V4.33333Z" fill="#4AC4AB"/>
<path d="M9.53333 6.06667H6.93333C6.69403 6.06667 6.5 6.26069 6.5 6.5V9.1C6.5 9.33931 6.69403 9.53333 6.93333 9.53333H9.53333C9.77264 9.53333 9.96667 9.33931 9.96667 9.1V6.5C9.96667 6.26069 9.77264 6.06667 9.53333 6.06667ZM9.1 8.66667H7.36667V6.93333H9.1V8.66667Z" fill="#4AC4AB"/>
<path d="M9.53333 1.73333H6.93333C6.69403 1.73333 6.5 1.92736 6.5 2.16667V4.76667C6.5 5.00598 6.69403 5.2 6.93333 5.2H9.53333C9.77264 5.2 9.96667 5.00598 9.96667 4.76667V2.16667C9.96667 1.92736 9.77264 1.73333 9.53333 1.73333ZM9.1 4.33333H7.36667V2.6H9.1V4.33333Z" fill="#4AC4AB"/>
<path d="M9.53333 10.4H6.93333C6.69403 10.4 6.5 10.594 6.5 10.8333V13.4333C6.5 13.6726 6.69403 13.8667 6.93333 13.8667H9.53333C9.77264 13.8667 9.96667 13.6726 9.96667 13.4333V10.8333C9.96667 10.594 9.77264 10.4 9.53333 10.4ZM9.1 13H7.36667V11.2667H9.1V13Z" fill="#4AC4AB"/>
<path d="M9.53333 14.7333H6.93333C6.69403 14.7333 6.5 14.9274 6.5 15.1667V17.7667C6.5 18.006 6.69403 18.2 6.93333 18.2H9.53333C9.77264 18.2 9.96667 18.006 9.96667 17.7667V15.1667C9.96667 14.9274 9.77264 14.7333 9.53333 14.7333ZM9.1 17.3333H7.36667V15.6H9.1V17.3333Z" fill="#4AC4AB"/>
<path d="M17.7667 19.9333H20.3667C20.606 19.9333 20.8 19.7393 20.8 19.5V16.9C20.8 16.6607 20.606 16.4667 20.3667 16.4667H17.7667C17.5274 16.4667 17.3333 16.6607 17.3333 16.9V19.5C17.3333 19.7393 17.5274 19.9333 17.7667 19.9333ZM18.2 17.3333H19.9333V19.0667H18.2V17.3333Z" fill="#4AC4AB"/>
<path d="M17.7667 15.6H20.3667C20.606 15.6 20.8 15.406 20.8 15.1667V12.5667C20.8 12.3274 20.606 12.1333 20.3667 12.1333H17.7667C17.5274 12.1333 17.3333 12.3274 17.3333 12.5667V15.1667C17.3333 15.406 17.5274 15.6 17.7667 15.6ZM18.2 13H19.9333V14.7333H18.2V13Z" fill="#4AC4AB"/>
<path d="M17.7667 24.2667H20.3667C20.606 24.2667 20.8 24.0726 20.8 23.8333V21.2333C20.8 20.994 20.606 20.8 20.3667 20.8H17.7667C17.5274 20.8 17.3333 20.994 17.3333 21.2333V23.8333C17.3333 24.0726 17.5274 24.2667 17.7667 24.2667ZM18.2 21.6667H19.9333V23.4H18.2V21.6667Z" fill="#4AC4AB"/>
<path d="M13.4333 19.9333H16.0333C16.2726 19.9333 16.4667 19.7393 16.4667 19.5V16.9C16.4667 16.6607 16.2726 16.4667 16.0333 16.4667H13.4333C13.194 16.4667 13 16.6607 13 16.9V19.5C13 19.7393 13.194 19.9333 13.4333 19.9333ZM13.8667 17.3333H15.6V19.0667H13.8667V17.3333Z" fill="#4AC4AB"/>
<path d="M13.4333 15.6H16.0333C16.2726 15.6 16.4667 15.406 16.4667 15.1667V12.5667C16.4667 12.3274 16.2726 12.1333 16.0333 12.1333H13.4333C13.194 12.1333 13 12.3274 13 12.5667V15.1667C13 15.406 13.194 15.6 13.4333 15.6ZM13.8667 13H15.6V14.7333H13.8667V13Z" fill="#4AC4AB"/>
<path d="M13.4333 24.2667H16.0333C16.2726 24.2667 16.4667 24.0726 16.4667 23.8333V21.2333C16.4667 20.994 16.2726 20.8 16.0333 20.8H13.4333C13.194 20.8 13 20.994 13 21.2333V23.8333C13 24.0726 13.194 24.2667 13.4333 24.2667ZM13.8667 21.6667H15.6V23.4H13.8667V21.6667Z" fill="#4AC4AB"/>
</svg>
