<svg width="28" height="20" viewBox="0 0 28 20" fill="none" xmlns="http://www.w3.org/2000/svg">
<path d="M26.4692 7.6L24.8277 6.23546C24.8211 6.23 24.8146 6.22318 24.808 6.21773L26.3362 5.9C26.5405 5.85773 26.6875 5.67136 26.6875 5.45455V4.09091C26.6875 3.84 26.4915 3.63636 26.25 3.63636H24.0625C23.821 3.63636 23.625 3.84 23.625 4.09091V4.88727C23.6149 4.87318 23.6049 4.85909 23.5948 4.845C23.5672 4.76591 23.5182 4.70136 23.4561 4.65C23.2098 4.28773 22.9989 3.925 22.8616 3.61136L22.1222 1.92182C21.651 0.844091 20.3892 0 19.25 0H8.75C7.61075 0 6.349 0.844091 5.87781 1.92182L5.13888 3.61091C5.0015 3.92455 4.79063 4.28773 4.54431 4.65C4.48219 4.70136 4.43362 4.76591 4.40562 4.845C4.39556 4.85909 4.38594 4.87273 4.37544 4.88727V4.09091C4.37544 3.84 4.17944 3.63636 3.93794 3.63636H1.75C1.5085 3.63636 1.3125 3.84 1.3125 4.09091V5.45455C1.3125 5.67136 1.4595 5.85773 1.66425 5.9L3.19244 6.21773C3.18587 6.22318 3.17931 6.23 3.17275 6.23546L1.53081 7.6C0.672438 8.31364 0 9.76727 0 10.9091V18.6364C0 19.3882 0.588875 20 1.3125 20H4.8125C5.53613 20 6.125 19.3882 6.125 18.6364V17.7273H21.875V18.6364C21.875 19.3882 22.4639 20 23.1875 20H26.6875C27.4111 20 28 19.3882 28 18.6364V10.9091C28 9.76727 27.3276 8.31364 26.4692 7.6ZM22.4936 16.8182L21.4904 15.7759C21.0647 15.3336 20.2895 15 19.6875 15H8.09375C7.49175 15 6.7165 15.3336 6.29081 15.7759L5.28763 16.8182H2.1875C1.46387 16.8182 0.875 16.2064 0.875 15.4545V13.1818H1.3125V13.6364C1.3125 14.6391 2.09737 15.4545 3.0625 15.4545H4.375C4.6165 15.4545 4.8125 15.2509 4.8125 15C4.8125 14.7491 4.6165 14.5455 4.375 14.5455H3.0625C2.57994 14.5455 2.1875 14.1377 2.1875 13.6364V13.1818H3.0625C3.42563 13.1818 3.99 13.4245 4.24681 13.6914C4.33212 13.78 4.44412 13.8245 4.55612 13.8245C4.66812 13.8245 4.78013 13.78 4.86544 13.6914C5.0365 13.5136 5.0365 13.2264 4.86544 13.0486C4.43975 12.6064 3.66494 12.2727 3.0625 12.2727H0.875V10.9091C0.875 10.7486 0.8995 10.5755 0.934062 10.3986C1.21406 10.7023 1.62137 10.9091 2.1875 10.9091H5.6875C5.80344 10.9091 5.91456 10.8614 5.99681 10.7759L6.5625 10.1882L7.12819 10.7759C7.21 10.8614 7.32156 10.9091 7.4375 10.9091H12.5064L13.6907 12.1395C13.776 12.2282 13.888 12.2727 14 12.2727C14.112 12.2727 14.224 12.2282 14.3093 12.1395L15.4936 10.9091H20.5625C20.6784 10.9091 20.79 10.8614 20.8718 10.7759L21.4375 10.1882L22.0032 10.7759C22.085 10.8614 22.1966 10.9091 22.3125 10.9091H25.8125C26.3786 10.9091 26.7859 10.7023 27.0659 10.3986C27.1005 10.5755 27.125 10.7486 27.125 10.9091V12.2727H24.9375C24.3355 12.2727 23.5603 12.6064 23.1346 13.0486C22.9635 13.2264 22.9635 13.5136 23.1346 13.6914C23.2199 13.78 23.3319 13.8245 23.4439 13.8245C23.5559 13.8245 23.6679 13.78 23.7532 13.6914C24.01 13.4245 24.5744 13.1818 24.9375 13.1818H25.8125V13.6364C25.8125 14.1377 25.4201 14.5455 24.9375 14.5455H23.625C23.3835 14.5455 23.1875 14.7491 23.1875 15C23.1875 15.2509 23.3835 15.4545 23.625 15.4545H24.9375C25.9026 15.4545 26.6875 14.6391 26.6875 13.6364V13.1818H27.125V15.4545C27.125 16.2064 26.5361 16.8182 25.8125 16.8182H22.4936ZM21.2564 16.8182H6.52487L6.90944 16.4186C7.16625 16.1518 7.73063 15.9091 8.09375 15.9091H19.6875C20.0506 15.9091 20.615 16.1518 20.8718 16.4186L21.2564 16.8182ZM5.0575 5.45455H22.9425C23.3664 6.03682 23.8507 6.58773 24.2808 6.94546L24.8071 7.38273L21.7127 8.66864C21.7122 8.66864 21.7122 8.66909 21.7118 8.66909C21.6589 8.69136 21.609 8.72455 21.5661 8.76909L20.3814 10H15.3125C15.1966 10 15.085 10.0477 15.0032 10.1332L14 11.1755L12.9968 10.1332C12.915 10.0477 12.8034 10 12.6875 10H7.61862L6.43431 8.76955C6.39144 8.725 6.34156 8.69182 6.28862 8.66955C6.28819 8.66955 6.28819 8.66909 6.28775 8.66909L3.19331 7.38318L3.71962 6.94591C4.14925 6.58773 4.63356 6.03682 5.0575 5.45455ZM26.6617 9.28136C26.5738 9.75636 26.2903 10 25.8125 10H22.4936L22.0561 9.54545L22.1209 9.47818L25.5924 8.03545L25.9223 8.31C26.1997 8.54045 26.4556 8.89091 26.6617 9.28136ZM24.5 4.54545H25.8125V5.08182L24.5 5.35455V4.54545ZM5.93469 3.98727L6.67362 2.29818C7.0035 1.545 7.95419 0.909091 8.75 0.909091H19.25C20.0458 0.909091 20.9965 1.545 21.3259 2.29773L22.0653 3.98727C22.1423 4.16273 22.2425 4.35227 22.3523 4.54545H5.64769C5.7575 4.35227 5.85812 4.16273 5.93469 3.98727ZM2.1875 4.54545H3.5V5.35455L2.1875 5.08182V4.54545ZM2.07725 8.31L2.40712 8.03545L5.87912 9.47818L5.94388 9.54545L5.50638 10H2.1875C1.70975 10 1.42625 9.75636 1.33831 9.28136C1.54437 8.89091 1.79988 8.54045 2.07725 8.31ZM4.8125 19.0909H1.3125C1.07144 19.0909 0.875 18.8868 0.875 18.6364V17.2614C1.24162 17.5495 1.69313 17.7273 2.1875 17.7273H5.25V18.6364C5.25 18.8868 5.05356 19.0909 4.8125 19.0909ZM26.6875 19.0909H23.1875C22.9464 19.0909 22.75 18.8868 22.75 18.6364V17.7273H25.8125C26.3069 17.7273 26.7584 17.5495 27.125 17.2614V18.6364C27.125 18.8868 26.9286 19.0909 26.6875 19.0909Z" fill="black"/>
</svg>
