<svg width="13" height="11" viewBox="0 0 13 11" fill="none" xmlns="http://www.w3.org/2000/svg">
<path d="M13 6.38931C13 4.64379 12.284 3.05979 11.1258 1.90548C11.1167 1.89367 11.1071 1.8821 11.0962 1.87133C11.0852 1.86057 11.0735 1.8511 11.0615 1.84226C9.88716 0.703788 8.27571 0 6.5 0C4.72429 0 3.11284 0.703829 1.93849 1.84226C1.92647 1.85114 1.91475 1.86061 1.9038 1.87133C1.89284 1.8821 1.88321 1.89362 1.87417 1.90548C0.716023 3.05979 0 4.64379 0 6.38931C0 8.09574 0.675957 9.69993 1.90333 10.9067C1.9035 10.9069 1.90367 10.9071 1.90384 10.9072C1.90397 10.9073 1.90405 10.9074 1.90418 10.9075C1.90435 10.9077 1.90452 10.9079 1.90469 10.908C1.96709 10.9694 2.04889 11 2.13068 11C2.21251 11 2.29435 10.9693 2.35675 10.908C2.36208 10.9027 2.36689 10.8971 2.37175 10.8916L3.35686 9.92325C3.4817 9.80049 3.4817 9.60156 3.35686 9.47884C3.23201 9.35617 3.0296 9.35617 2.9048 9.47884L2.13605 10.2345C1.23965 9.25398 0.719603 8.01994 0.648082 6.70354H1.73527C1.91181 6.70354 2.05494 6.56289 2.05494 6.38931C2.05494 6.21573 1.91181 6.07508 1.73527 6.07508H0.648167C0.722502 4.72298 1.27336 3.49346 2.13814 2.54613L2.9048 3.29973C2.9672 3.36107 3.04903 3.39174 3.13083 3.39174C3.21262 3.39174 3.29446 3.36107 3.35686 3.29973C3.4817 3.17697 3.4817 2.97805 3.35686 2.85533L2.59024 2.10168C3.55403 1.25163 4.8048 0.710156 6.18033 0.637129V1.70576C6.18033 1.87934 6.32346 2.01999 6.5 2.01999C6.67654 2.01999 6.81967 1.87934 6.81967 1.70576V0.637129C8.1952 0.710156 9.44597 1.25168 10.4098 2.10173L9.6431 2.85533C9.51826 2.97809 9.51826 3.17702 9.6431 3.29973C9.7055 3.36107 9.78734 3.39174 9.86913 3.39174C9.95092 3.39174 10.0328 3.36107 10.0952 3.29973L10.8618 2.54613C11.7266 3.49351 12.2775 4.72298 12.3518 6.07508H11.2646C11.0881 6.07508 10.945 6.21573 10.945 6.38931C10.945 6.56289 11.0881 6.70354 11.2646 6.70354H12.3518C12.2803 8.01994 11.7603 9.25402 10.8639 10.2345L10.0952 9.47884C9.97036 9.35617 9.76794 9.35617 9.6431 9.47884C9.51826 9.6016 9.51826 9.80053 9.6431 9.92325L10.6441 10.9072C10.7065 10.9685 10.7883 10.9992 10.8701 10.9992C10.911 10.9992 10.9519 10.9915 10.9904 10.9762C11.0289 10.9609 11.065 10.9379 11.0962 10.9072C12.3239 9.70039 13 8.0959 13 6.38931Z" fill="#F1822B"/>
<path d="M7.96862 2.78582C7.80465 2.72126 7.61864 2.79952 7.553 2.96066L6.62923 5.22729C6.58618 5.22277 6.54313 5.21967 6.50004 5.21967C6.05012 5.21967 5.6437 5.46464 5.43933 5.85897C5.2257 6.2712 5.28043 6.76374 5.58561 7.17643C5.61681 7.21862 5.65602 7.25721 5.69924 7.28808C5.94718 7.46527 6.2241 7.55891 6.50004 7.55891C6.94997 7.55891 7.35642 7.31394 7.56076 6.9196C7.77438 6.50737 7.71966 6.01487 7.41469 5.60248C7.38349 5.56016 7.34419 5.52145 7.30084 5.49045C7.27753 5.47377 7.2537 5.45856 7.22988 5.4434L8.14648 3.19432C8.21212 3.03327 8.1325 2.85034 7.96862 2.78582ZM6.99102 6.63432C6.89635 6.81695 6.70821 6.93041 6.5 6.93041C6.36344 6.93041 6.22598 6.88353 6.09129 6.79102C5.93785 6.57445 5.90771 6.33966 6.00903 6.14421C6.10365 5.96158 6.29179 5.84812 6.50004 5.84812C6.56645 5.84812 6.63303 5.85944 6.69943 5.88143C6.70161 5.88231 6.70361 5.88344 6.70583 5.88432C6.71282 5.88705 6.71985 5.88927 6.72688 5.89149C6.78783 5.91449 6.84853 5.94616 6.90871 5.98747C7.06211 6.20404 7.09229 6.43887 6.99102 6.63432Z" fill="#F1822B"/>
</svg>
