<svg width="14" height="15" viewBox="0 0 14 15" fill="none" xmlns="http://www.w3.org/2000/svg">
<path d="M12.8333 1.15385H10.5V0H9.33333V1.15385H4.66667V0H3.5V1.15385H1.16667C0.525 1.15385 0 1.67308 0 2.30769V13.8462C0 14.4808 0.525 15 1.16667 15H12.8333C13.475 15 14 14.4808 14 13.8462V2.30769C14 1.67308 13.475 1.15385 12.8333 1.15385ZM12.8333 13.8462H1.16667V5.76923H12.8333V13.8462ZM12.8333 4.61538H1.16667V2.30769H3.5V3.46154H4.66667V2.30769H9.33333V3.46154H10.5V2.30769H12.8333V4.61538Z" fill="#F1822B"/>
</svg>
