<svg width="15" height="12" viewBox="0 0 15 12" fill="none" xmlns="http://www.w3.org/2000/svg">
<path d="M12.1717 2.78477H1.43599V1.35262C1.43599 1.22602 1.38681 1.10459 1.29927 1.01507C1.21173 0.92554 1.09301 0.875244 0.969213 0.875244C0.845418 0.875244 0.726692 0.92554 0.639156 1.01507C0.551619 1.10459 0.502441 1.22602 0.502441 1.35262V10.9002C0.502441 11.0268 0.551619 11.1483 0.639156 11.2378C0.726692 11.3273 0.845418 11.3776 0.969213 11.3776C1.09301 11.3776 1.21173 11.3273 1.29927 11.2378C1.38681 11.1483 1.43599 11.0268 1.43599 10.9002V8.99071H13.5721V10.9002C13.5721 11.0268 13.6212 11.1483 13.7088 11.2378C13.7963 11.3273 13.915 11.3776 14.0388 11.3776C14.1626 11.3776 14.2814 11.3273 14.3689 11.2378C14.4564 11.1483 14.5056 11.0268 14.5056 10.9002V5.17167C14.5056 4.53862 14.2597 3.9315 13.822 3.48387C13.3843 3.03624 12.7907 2.78477 12.1717 2.78477ZM1.43599 3.73953H5.63693V8.03595H1.43599V3.73953ZM6.57048 8.03595V3.73953H12.1717C12.5431 3.73953 12.8993 3.89041 13.1619 4.15899C13.4245 4.42757 13.5721 4.79184 13.5721 5.17167V8.03595H6.57048Z" fill="#F1822B"/>
</svg>
