<svg width="80" height="48" viewBox="0 0 80 48" fill="none" xmlns="http://www.w3.org/2000/svg">
<path fill-rule="evenodd" clip-rule="evenodd" d="M57.0313 0.477723C63.9673 2.10953 66.6205 6.22153 69.9469 11.8812H57.0313V0.477723ZM16.4966 12.3564C17.8546 12.3564 18.8403 13.021 18.8403 14.5743C18.8403 15.8843 17.7948 16.9468 16.5033 16.9505H2.34375C1.04919 16.9505 0 18.0149 0 19.3267C0 20.6392 1.04919 21.703 2.34375 21.703H23.4375C24.7443 21.703 25.7904 22.7661 25.7904 24.0792C25.7904 25.3917 24.7412 26.4554 23.4467 26.4554H2.34375C1.04919 26.4554 0 27.5192 0 28.8317C0 30.1442 1.04919 31.2079 2.34375 31.2079H7.5V38.3366C7.5 39.6491 8.54919 40.7129 9.84375 40.7129H14.5551C15.3949 44.9072 19.0503 48 23.3594 48C27.6685 48 31.3239 44.9072 32.1637 40.7129H55.9613C56.8011 44.9072 60.4565 48 64.7656 48C69.0747 48 72.7301 44.9072 73.5699 40.7129H77.6562C78.9508 40.7129 80 39.6491 80 38.3366V24.0792C80 17.1071 72.7466 16.6442 72.7399 16.6337H54.6875C53.3929 16.6337 52.3438 15.5699 52.3438 14.2574V0H9.84375C8.54919 0 7.5 1.06374 7.5 2.37624V7.60396H4.6875C3.39294 7.60396 2.34375 8.6677 2.34375 9.9802C2.34375 11.2927 3.39294 12.3564 4.6875 12.3564H16.4966ZM67.804 35.8106C69.4818 37.5118 69.4818 40.271 67.804 41.9722C65.105 44.7085 60.4688 42.7618 60.4688 38.8911C60.4688 35.021 65.105 33.0743 67.804 35.8106ZM26.3977 35.8106C28.0756 37.5118 28.0756 40.271 26.3977 41.9722C23.6987 44.7085 19.0625 42.7618 19.0625 38.8911C19.0625 35.021 23.6987 33.0743 26.3977 35.8106Z" fill="white"/>
</svg>
