<svg width="13" height="16" viewBox="0 0 13 16" fill="none" xmlns="http://www.w3.org/2000/svg">
<path fill-rule="evenodd" clip-rule="evenodd" d="M3.20777 6.50942C3.20777 5.60248 3.5682 4.73268 4.20978 4.09137C4.85135 3.45006 5.72151 3.08978 6.62883 3.08978C7.53616 3.08978 8.40632 3.45006 9.04789 4.09137C9.68947 4.73268 10.0499 5.60248 10.0499 6.50942C10.0499 7.41637 9.68947 8.28617 9.04789 8.92748C8.40632 9.56878 7.53616 9.92907 6.62883 9.92907C5.72151 9.92907 4.85135 9.56878 4.20978 8.92748C3.5682 8.28617 3.20777 7.41637 3.20777 6.50942ZM6.62883 4.16967C6.00804 4.16967 5.41266 4.41618 4.97369 4.85497C4.53472 5.29376 4.28811 5.88888 4.28811 6.50942C4.28811 7.12997 4.53472 7.72509 4.97369 8.16388C5.41266 8.60267 6.00804 8.84918 6.62883 8.84918C7.24963 8.84918 7.84501 8.60267 8.28398 8.16388C8.72295 7.72509 8.96956 7.12997 8.96956 6.50942C8.96956 5.88888 8.72295 5.29376 8.28398 4.85497C7.84501 4.41618 7.24963 4.16967 6.62883 4.16967Z" fill="#F1822B"/>
<path fill-rule="evenodd" clip-rule="evenodd" d="M0.524218 5.68655C0.647323 4.194 1.32743 2.80231 2.42951 1.78778C3.53158 0.773249 4.97503 0.210078 6.47327 0.210083H6.7844C8.28264 0.210078 9.72609 0.773249 10.8282 1.78778C11.9302 2.80231 12.6103 4.194 12.7335 5.68655C12.8704 7.34906 12.3566 8.99983 11.3002 10.2912L7.84817 14.5107C7.70044 14.6912 7.51441 14.8368 7.30354 14.9367C7.09266 15.0366 6.86221 15.0884 6.62883 15.0884C6.39546 15.0884 6.16501 15.0366 5.95413 14.9367C5.74326 14.8368 5.55723 14.6912 5.4095 14.5107L1.95746 10.2912C0.900979 8.99987 0.387149 7.34907 0.524218 5.68655ZM6.47327 1.28997C5.24635 1.29016 4.06436 1.75146 3.16191 2.58232C2.25946 3.41318 1.70253 4.55285 1.60167 5.7751C1.48759 7.1587 1.91518 8.53255 2.79436 9.60726L6.2464 13.8275C6.2928 13.8842 6.35125 13.93 6.41752 13.9614C6.48379 13.9928 6.55621 14.0091 6.62956 14.0091C6.7029 14.0091 6.77532 13.9928 6.84159 13.9614C6.90786 13.93 6.96631 13.8842 7.01271 13.8275L10.4647 9.60726C11.3434 8.53233 11.7705 7.1585 11.656 5.7751C11.5551 4.55272 10.9981 3.41295 10.0955 2.58208C9.19289 1.7512 8.01072 1.28997 6.78368 1.28997H6.47327Z" fill="#F1822B"/>
</svg>
