<svg width="80" height="84" viewBox="0 0 80 84" fill="none" xmlns="http://www.w3.org/2000/svg">
<path d="M68.5715 15.288C69.0767 15.288 69.5611 15.0869 69.9184 14.7289C70.2756 14.371 70.4763 13.8855 70.4763 13.3792V1.92721C70.4787 1.67501 70.4313 1.42482 70.3366 1.19112C70.242 0.957406 70.1021 0.744807 69.925 0.565604C69.7479 0.386401 69.5371 0.244148 69.3048 0.147067C69.0724 0.0499853 68.8232 0 68.5715 0C68.3199 0 68.0707 0.0499853 67.8383 0.147067C67.606 0.244148 67.3952 0.386401 67.2181 0.565604C67.041 0.744807 66.9011 0.957406 66.8065 1.19112C66.7119 1.42482 66.6644 1.67501 66.6668 1.92721V13.3792C66.6668 13.8854 66.8675 14.3709 67.2247 14.7288C67.5819 15.0868 68.0663 15.2879 68.5715 15.288Z" fill="white"/>
<path d="M76.1906 22.9225C76.6958 22.9225 77.1803 22.7214 77.5375 22.3635C77.8947 22.0055 78.0954 21.52 78.0954 21.0138V9.56177C78.0978 9.30957 78.0504 9.05939 77.9557 8.82568C77.8611 8.59197 77.7212 8.37937 77.5441 8.20016C77.367 8.02096 77.1562 7.87871 76.9239 7.78163C76.6916 7.68455 76.4424 7.63456 76.1907 7.63456C75.939 7.63456 75.6898 7.68455 75.4575 7.78163C75.2252 7.87871 75.0144 8.02096 74.8372 8.20016C74.6601 8.37937 74.5202 8.59197 74.4256 8.82568C74.331 9.05939 74.2835 9.30957 74.2859 9.56177V21.0138C74.2859 21.52 74.4866 22.0055 74.8438 22.3634C75.201 22.7214 75.6854 22.9225 76.1906 22.9225Z" fill="white"/>
<path d="M13.3334 3.83594C12.8282 3.83594 12.3438 4.03701 11.9866 4.39493C11.6293 4.75285 11.4286 5.2383 11.4286 5.74449V17.1965C11.4334 17.6995 11.6363 18.1803 11.9929 18.5342C12.3496 18.8882 12.8313 19.0868 13.3333 19.0868C13.8353 19.0868 14.317 18.8882 14.6737 18.5342C15.0304 18.1803 15.2332 17.6995 15.238 17.1965V5.74449C15.238 5.23833 15.0373 4.75291 14.6801 4.39499C14.323 4.03708 13.8385 3.83599 13.3334 3.83594Z" fill="white"/>
<path d="M5.71429 15.288C5.2091 15.288 4.7246 15.4891 4.36738 15.847C4.01015 16.205 3.80947 16.6905 3.80947 17.1967V28.6487C3.81433 29.1517 4.01714 29.6325 4.37382 29.9864C4.7305 30.3404 5.2122 30.539 5.7142 30.539C6.2162 30.539 6.6979 30.3404 7.05458 29.9864C7.41126 29.6325 7.61407 29.1517 7.61893 28.6487V17.1967C7.61893 16.6905 7.41827 16.205 7.06109 15.8471C6.7039 15.4891 6.21945 15.288 5.71429 15.288Z" fill="white"/>
<path d="M79.442 46.3857C79.2652 46.2085 79.0552 46.0679 78.8242 45.9719C78.5931 45.876 78.3454 45.8266 78.0953 45.8266C77.8452 45.8266 77.5975 45.876 77.3664 45.9719C77.1354 46.0679 76.9254 46.2085 76.7486 46.3857L74.2858 48.8533V30.5573C74.2809 30.0543 74.0781 29.5735 73.7214 29.2195C73.3647 28.8656 72.883 28.667 72.381 28.667C71.879 28.667 71.3973 28.8656 71.0406 29.2195C70.684 29.5735 70.4811 30.0543 70.4763 30.5573V48.8533L68.0134 46.3857C67.6549 46.0346 67.1726 45.8393 66.6713 45.8422C66.1699 45.8451 65.69 46.046 65.3355 46.4012C64.981 46.7564 64.7805 47.2374 64.7776 47.7398C64.7747 48.2421 64.9696 48.7254 65.32 49.0847L71.0343 54.8107C71.2111 54.9879 71.4211 55.1286 71.6522 55.2245C71.8832 55.3204 72.1309 55.3698 72.381 55.3698C72.6311 55.3698 72.8788 55.3204 73.1099 55.2245C73.341 55.1286 73.5509 54.9879 73.7277 54.8107L79.442 49.0847C79.6189 48.9075 79.7592 48.6971 79.855 48.4656C79.9507 48.234 80 47.9858 80 47.7352C80 47.4846 79.9507 47.2364 79.855 47.0048C79.7592 46.7733 79.6189 46.5629 79.442 46.3857Z" fill="white"/>
<path d="M41.9048 7.65322C37.7609 7.65322 33.7099 8.88457 30.2643 11.1916C26.8188 13.4986 24.1332 16.7776 22.5474 20.614C20.9616 24.4504 20.5467 28.6718 21.3551 32.7445C22.1636 36.8172 24.1591 40.5582 27.0893 43.4945C30.0195 46.4307 33.7529 48.4303 37.8172 49.2404C41.8816 50.0505 46.0944 49.6348 49.923 48.0457C53.7515 46.4566 57.0238 43.7656 59.3261 40.3129C61.6283 36.8602 62.8572 32.801 62.8572 28.6485C62.8572 23.0802 60.6497 17.74 56.7204 13.8026C52.7911 9.86522 47.4617 7.65322 41.9048 7.65322ZM45.2531 37.6267C44.7915 37.8567 44.3079 38.0392 43.8097 38.1714V40.1007C43.8048 40.6037 43.602 41.0845 43.2453 41.4384C42.8886 41.7924 42.4069 41.991 41.9049 41.991C41.4029 41.991 40.9212 41.7924 40.5646 41.4384C40.2079 41.0845 40.0051 40.6037 40.0002 40.1007V38.2666C38.5564 37.952 37.1971 37.3295 36.0148 36.4415C35.8088 36.2948 35.634 36.1085 35.5005 35.8934C35.367 35.6784 35.2776 35.4388 35.2375 35.1888C35.1973 34.9387 35.2072 34.6832 35.2666 34.437C35.326 34.1909 35.4337 33.959 35.5834 33.755C35.7332 33.5509 35.9219 33.3788 36.1387 33.2486C36.3554 33.1184 36.5959 33.0327 36.8461 32.9966C37.0962 32.9604 37.351 32.9745 37.5957 33.038C37.8403 33.1016 38.0699 33.2133 38.2711 33.3666C40.8995 35.3027 42.9614 34.5091 43.5334 34.2203C44.3398 33.8112 44.762 33.1955 44.762 32.799C44.762 31.8932 43.9277 31.4212 42.0582 30.7054C41.7216 30.5764 41.4081 30.4549 41.1356 30.3354C40.9486 30.2524 40.7236 30.1681 40.4772 30.0739C38.7761 29.4271 35.238 28.0804 35.238 24.3787C35.238 22.4389 36.5095 20.5888 38.5564 19.5512C39.0183 19.3238 39.5019 19.144 39.9998 19.0143V17.1963C39.9974 16.9441 40.0449 16.6939 40.1395 16.4602C40.2341 16.2265 40.374 16.0139 40.5512 15.8347C40.7283 15.6555 40.9391 15.5133 41.1714 15.4162C41.4037 15.3191 41.6529 15.2691 41.9046 15.2691C42.1563 15.2691 42.4055 15.3191 42.6378 15.4162C42.8701 15.5133 43.0809 15.6555 43.258 15.8347C43.4351 16.0139 43.575 16.2265 43.6696 16.4602C43.7643 16.6939 43.8117 16.9441 43.8093 17.1963V18.924C45.2523 19.2335 46.6117 19.8513 47.7947 20.7354C48.2017 21.0352 48.4733 21.4847 48.5496 21.9851C48.6258 22.4855 48.5006 22.9958 48.2015 23.4037C47.9023 23.8116 47.4537 24.0837 46.9543 24.1601C46.4549 24.2366 45.9457 24.1111 45.5386 23.8113C42.9093 21.8752 40.8473 22.6688 40.2763 22.9576C39.4698 23.3666 39.0477 23.9824 39.0477 24.3789C39.0477 25.2768 40.0252 25.8192 41.8295 26.5056C42.1466 26.6262 42.4339 26.7368 42.6739 26.8429C42.8925 26.9393 43.1465 27.0354 43.417 27.1392C45.2186 27.829 48.5715 29.1127 48.5715 32.7992C48.5715 34.739 47.3 36.5889 45.2531 37.6267Z" fill="white"/>
<path d="M79.7238 70.8825C79.563 71.2245 79.3337 71.5298 79.0503 71.7793C78.7669 72.0289 78.4353 72.2174 78.0761 72.3332L44.7618 83.4606C43.4793 83.8951 42.1235 84.0699 40.7731 83.9749C39.4226 83.8798 38.1045 83.5169 36.8952 82.9071L27.2 78.0497C25.4927 77.1944 23.5587 76.9036 21.6761 77.2192L13.9713 78.5076V61.7304L27.1618 57.331C29.2601 56.6329 31.5262 56.6262 33.6286 57.3119L50.2952 62.7802C50.9229 63.0078 51.4424 63.4634 51.7508 64.0567C52.0591 64.65 52.1338 65.3377 51.9601 65.9835C51.7864 66.6294 51.3769 67.1863 50.8127 67.5439C50.2486 67.9016 49.571 68.0338 48.9141 67.9145L38.4379 66.0057C38.1921 65.9606 37.9399 65.9645 37.6956 66.017C37.4513 66.0696 37.2198 66.1699 37.0142 66.3121C36.8086 66.4544 36.6329 66.6358 36.4973 66.846C36.3617 67.0563 36.2687 67.2913 36.2237 67.5375C36.1787 67.7838 36.1825 68.0365 36.235 68.2813C36.2874 68.5261 36.3875 68.7581 36.5294 68.9642C36.6714 69.1702 36.8524 69.3462 37.0623 69.4821C37.2721 69.618 37.5066 69.7112 37.7523 69.7563L48.2286 71.665C48.6115 71.7378 49.0005 71.773 49.3902 71.77C50.8634 71.7723 52.2925 71.2668 53.4379 70.3385L76.7809 66.884C77.2849 66.8097 77.7995 66.8741 78.2697 67.0703C78.7399 67.2665 79.148 67.5872 79.4503 67.998C79.7526 68.4087 79.9377 68.8942 79.9859 69.4023C80.034 69.9104 79.9435 70.4221 79.7238 70.8825Z" fill="white"/>
<path d="M10.1618 58.9057V80.903C10.1603 81.4569 9.94012 81.9876 9.54928 82.3793C9.15845 82.7709 8.62879 82.9916 8.07608 82.993H2.08572C1.81179 82.9931 1.54053 82.9391 1.28744 82.8341C1.03434 82.7291 0.804378 82.5752 0.610682 82.3811C0.416987 82.187 0.263358 81.9566 0.158574 81.7029C0.0537907 81.4493 -9.37362e-05 81.1775 1.22404e-07 80.903V58.9057C0.00146128 58.3518 0.221675 57.8211 0.612506 57.4294C1.00334 57.0378 1.533 56.8171 2.08572 56.8157H8.07625C8.62843 56.8188 9.1571 57.04 9.54754 57.4313C9.93798 57.8226 10.1587 58.3524 10.1618 58.9057Z" fill="white"/>
</svg>
