<svg width="12" height="10" viewBox="0 0 12 10" fill="none" xmlns="http://www.w3.org/2000/svg">
<path d="M8.02459 5.34887C7.48462 4.54568 6.56497 4.06608 5.56448 4.06608C4.56409 4.06608 3.64435 4.54568 3.10447 5.34887L1.80332 7.28427C1.58744 7.60543 1.48783 7.97634 1.51521 8.35686C1.54258 8.73746 1.69446 9.09188 1.95438 9.38196C2.21448 9.67195 2.55817 9.87011 2.94828 9.95513C3.33838 10.0401 3.73828 10.0038 4.10468 9.85029L4.12857 9.84016C5.0506 9.46122 6.10446 9.46462 7.0242 9.85029C7.26141 9.94972 7.51272 10 7.76632 10C7.9042 10 8.0429 9.98507 8.18032 9.95522C8.57043 9.87028 8.91412 9.67212 9.17431 9.38213C9.43432 9.09214 9.5863 8.73764 9.61376 8.35703C9.64123 7.97634 9.54162 7.60543 9.32574 7.28419L8.02459 5.34887ZM8.63974 8.94618C8.30877 9.31509 7.77337 9.43171 7.30737 9.23635C6.75348 9.00406 6.15894 8.88796 5.56421 8.88796C4.97003 8.88796 4.37558 9.00397 3.82206 9.236L3.80631 9.24263C3.34388 9.4291 2.81635 9.31099 2.48905 8.94618C2.15845 8.57719 2.12083 8.05482 2.39548 7.6462L3.69672 5.71079C4.10669 5.10096 4.80487 4.73685 5.56448 4.73685C6.3241 4.73685 7.02237 5.10096 7.43243 5.71079L8.73349 7.64611C9.00823 8.05491 8.97052 8.57736 8.63974 8.94618Z" fill="#F1822B"/>
<path d="M2.15378 5.34634C2.54087 5.20457 2.83494 4.90716 2.98188 4.50884C3.12159 4.12981 3.11014 3.70189 2.94947 3.30383C2.7887 2.90603 2.49628 2.58129 2.12614 2.38933C1.73713 2.18777 1.30985 2.15495 0.923409 2.29698C0.145945 2.58199 -0.210836 3.49806 0.128183 4.33949C0.398996 5.00921 1.03062 5.43198 1.6692 5.43198C1.83225 5.43198 1.99576 5.40439 2.15378 5.34634ZM0.784616 4.09856C0.584848 3.60272 0.760354 3.07529 1.17609 2.92288C1.25117 2.89529 1.33054 2.88159 1.41157 2.88159C1.53663 2.88159 1.66581 2.91415 1.79014 2.97866C2.01371 3.0945 2.19233 3.29562 2.29304 3.54485C2.39365 3.79425 2.40262 4.05753 2.31821 4.28633C2.24085 4.49601 2.09281 4.65017 1.90147 4.72027L1.9011 4.72044C1.48591 4.87303 0.985024 4.59395 0.784616 4.09856Z" fill="#F1822B"/>
<path d="M4.67844 3.83004C5.65036 3.83004 6.4411 2.97106 6.4411 1.91524C6.4411 0.859151 5.65036 0 4.67844 0C3.70661 0 2.91596 0.859151 2.91596 1.91524C2.91596 2.97106 3.70661 3.83004 4.67844 3.83004ZM4.67844 0.670682C5.26245 0.670682 5.7377 1.22902 5.7377 1.91524C5.7377 2.6012 5.26245 3.15936 4.67844 3.15936C4.09442 3.15936 3.61936 2.6012 3.61936 1.91524C3.61936 1.22902 4.09442 0.670682 4.67844 0.670682Z" fill="#F1822B"/>
<path d="M7.72256 4.30047H7.72265C7.87216 4.34778 8.02468 4.37039 8.17657 4.37039C8.88537 4.37039 9.57614 3.87849 9.83972 3.12252C9.99151 2.68736 9.98153 2.22723 9.81161 1.82698C9.63381 1.40806 9.30432 1.10392 8.88372 0.970538C8.46313 0.837327 8.00802 0.892846 7.60254 1.12697C7.21518 1.3507 6.91836 1.7135 6.76684 2.14866C6.44687 3.06665 6.87561 4.03195 7.72256 4.30047ZM7.43435 2.36018C7.53332 2.07603 7.72247 1.84191 7.96701 1.70067C8.19323 1.56999 8.44006 1.53673 8.66189 1.607C8.88363 1.67736 9.06033 1.84479 9.15957 2.07856C9.26678 2.33119 9.27136 2.62677 9.17221 2.91092C8.97454 3.47798 8.42376 3.81581 7.94449 3.664C7.46557 3.51211 7.23669 2.92724 7.43435 2.36018Z" fill="#F1822B"/>
<path d="M11.4346 4.07699L11.4343 4.07673C10.764 3.60464 9.76162 3.80926 9.19958 4.53311C8.63809 5.2573 8.72589 6.23089 9.39514 6.70333C9.63921 6.87574 9.9276 6.95814 10.2228 6.95814C10.7372 6.95814 11.2724 6.70778 11.6301 6.24739C12.1916 5.5232 12.1039 4.5496 11.4346 4.07699ZM11.0648 5.84837C10.7329 6.2755 10.1718 6.41718 9.81371 6.16429C9.45593 5.91175 9.43414 5.35882 9.7651 4.93195C9.9851 4.6486 10.3064 4.49094 10.6026 4.49094C10.7524 4.49094 10.8958 4.53127 11.0163 4.61621C11.3738 4.86901 11.3955 5.42176 11.0648 5.84837Z" fill="#F1822B"/>
</svg>
