<svg width="52" height="68" viewBox="0 0 52 68" fill="none" xmlns="http://www.w3.org/2000/svg">
<path d="M51.5911 55.5945C50.0856 51.0657 44.0852 48.2309 39.8071 46.3307C38.1311 45.5887 33.4912 44.33 32.9336 42.197C32.734 41.4286 32.7609 40.704 32.9246 40.0097C32.6667 40.0596 32.4051 40.089 32.1345 40.089H29.3469C27.1216 40.089 25.3133 38.2591 25.3133 36.0113C25.3133 33.765 27.1223 31.9388 29.3469 31.9388H32.1345C33.0554 31.9388 33.9285 32.2539 34.6327 32.816C35.665 32.677 36.6607 32.4541 37.5892 32.1617C38.8084 29.58 39.7592 26.4928 39.9723 23.8355C40.882 12.4659 33.9861 5.814 24.0986 6.96395C16.9096 7.80035 12.6151 13.2184 12.1508 20.1937C11.6814 27.3035 14.2895 32.5546 17.0598 36.4064C18.2731 38.0906 19.5476 39.1733 19.3518 41.2027C19.1245 43.6024 16.5859 44.271 14.7702 45.0084C12.6188 45.8819 10.3015 47.2071 9.20708 47.8199C5.43731 49.9241 1.29975 52.4582 0.369827 55.9247C-1.68961 63.6072 5.26538 65.9343 11.0071 67.0087C15.9348 67.9275 21.4912 68 26.0616 68C34.3285 68 49.1938 67.6653 51.5911 61.3844C52.2728 59.602 51.9805 56.7619 51.5911 55.5945Z" fill="white"/>
<path d="M33.8986 34.8636C33.5204 34.2811 32.8738 33.8942 32.136 33.8942H29.3484C28.1853 33.8942 27.2471 34.844 27.2471 36.0136C27.2471 37.1877 28.1853 38.1389 29.3484 38.1389H32.136C32.95 38.1389 33.6407 37.6697 33.9891 36.9912C37.8755 36.6822 41.2558 35.4824 43.6284 33.7106C44.1734 34.0657 44.8177 34.2735 45.5129 34.2735H45.6879C47.6254 34.2735 49.1923 32.6884 49.1923 30.7277V23.6496C49.1923 22.2398 48.3745 21.0233 47.1949 20.4582C46.6806 9.09235 37.3716 0 26.0003 0C14.6289 0 5.31845 9.09235 4.8064 20.4582C3.62456 21.0241 2.80751 22.2398 2.80751 23.6496V30.7277C2.80751 32.6884 4.37582 34.2735 6.30892 34.2735H6.48609C8.42068 34.2735 9.98974 32.6884 9.98974 30.7277V23.6496C9.98974 22.2602 9.19512 21.0619 8.04019 20.4824C8.54029 10.9057 16.4028 3.27231 26.0003 3.27231C35.594 3.27231 43.4602 10.9057 43.9581 20.4824C42.8047 21.0626 42.0108 22.2602 42.0108 23.6496V30.7277C42.0108 31.1976 42.1012 31.6351 42.2605 32.0439C40.2182 33.521 37.2453 34.5735 33.8986 34.8636Z" fill="white"/>
</svg>
